STARTFONT 2.1
FONT -FontForge-Terminal-Normal-R-Normal--20-120-120-120-M-100-WinRoman-0
SIZE 12 120 120
FONTBOUNDINGBOX 10 22 0 -2
COMMENT "Generated by fontforge, http://fontforge.sourceforge.net"
COMMENT "(c) Copyright Microsoft Corp. 1993. All rights reserved."
STARTPROPERTIES 33
FOUNDRY "FontForge"
FAMILY_NAME "Terminal"
WEIGHT_NAME "Normal"
SLANT "R"
SETWIDTH_NAME "Normal"
ADD_STYLE_NAME ""
PIXEL_SIZE 20
POINT_SIZE 120
RESOLUTION_X 120
RESOLUTION_Y 120
SPACING "M"
AVERAGE_WIDTH 100
CHARSET_REGISTRY "WinRoman"
CHARSET_ENCODING "0"
FONTNAME_REGISTRY ""
CHARSET_COLLECTIONS "WinRoman"
FONT_NAME "Terminal"
FACE_NAME "Terminal"
FONT_VERSION "001.000"
FONT_ASCENT 16
FONT_DESCENT 4
UNDERLINE_POSITION -2
UNDERLINE_THICKNESS 1
X_HEIGHT 12
CAP_HEIGHT 17
RAW_ASCENT 800
RAW_DESCENT 200
NORM_SPACE 10
RELATIVE_WEIGHT 40
RELATIVE_SETWIDTH 50
FIGURE_WIDTH 10
AVG_LOWERCASE_WIDTH 100
AVG_UPPERCASE_WIDTH 100
ENDPROPERTIES
CHARS 256
STARTCHAR uni0000
ENCODING 0
SWIDTH 54 0
DWIDTH 10 0
BBX 1 1 9 -2
BITMAP
00
ENDCHAR
STARTCHAR uni0001
ENCODING 1
SWIDTH 54 0
DWIDTH 10 0
BBX 5 12 5 -2
BITMAP
F8
80
80
80
80
80
80
80
80
80
80
80
ENDCHAR
STARTCHAR uni0002
ENCODING 2
SWIDTH 54 0
DWIDTH 10 0
BBX 6 12 0 -2
BITMAP
FC
04
04
04
04
04
04
04
04
04
04
04
ENDCHAR
STARTCHAR uni0003
ENCODING 3
SWIDTH 54 0
DWIDTH 10 0
BBX 5 11 5 9
BITMAP
80
80
80
80
80
80
80
80
80
80
F8
ENDCHAR
STARTCHAR uni0004
ENCODING 4
SWIDTH 54 0
DWIDTH 10 0
BBX 6 11 0 9
BITMAP
04
04
04
04
04
04
04
04
04
04
FC
ENDCHAR
STARTCHAR uni0005
ENCODING 5
SWIDTH 54 0
DWIDTH 10 0
BBX 1 22 5 -2
BITMAP
80
80
80
80
80
80
80
80
80
80
80
80
80
80
80
80
80
80
80
80
80
80
ENDCHAR
STARTCHAR uni0006
ENCODING 6
SWIDTH 54 0
DWIDTH 10 0
BBX 10 1 0 9
BITMAP
FFC0
ENDCHAR
STARTCHAR uni0007
ENCODING 7
SWIDTH 54 0
DWIDTH 10 0
BBX 4 4 3 7
BITMAP
60
F0
F0
60
ENDCHAR
STARTCHAR uni0008
ENCODING 8
SWIDTH 54 0
DWIDTH 10 0
BBX 10 22 0 -2
BITMAP
FFC0
FFC0
FFC0
FFC0
FFC0
FFC0
FFC0
FFC0
FFC0
F3C0
E1C0
E1C0
F3C0
FFC0
FFC0
FFC0
FFC0
FFC0
FFC0
FFC0
FFC0
FFC0
ENDCHAR
STARTCHAR uni0009
ENCODING 9
SWIDTH 54 0
DWIDTH 10 0
BBX 6 6 2 5
BITMAP
78
CC
84
84
CC
78
ENDCHAR
STARTCHAR uni000A
ENCODING 10
SWIDTH 54 0
DWIDTH 10 0
BBX 10 22 0 -2
BITMAP
FFC0
FFC0
FFC0
FFC0
FFC0
FFC0
FFC0
FFC0
E1C0
CCC0
DEC0
DEC0
CCC0
E1C0
FFC0
FFC0
FFC0
FFC0
FFC0
FFC0
FFC0
FFC0
ENDCHAR
STARTCHAR uni000B
ENCODING 11
SWIDTH 54 0
DWIDTH 10 0
BBX 9 12 1 3
BITMAP
0780
0180
0380
0680
0C80
3C00
6600
C300
C300
C300
6600
3C00
ENDCHAR
STARTCHAR uni000C
ENCODING 12
SWIDTH 54 0
DWIDTH 10 0
BBX 8 13 1 3
BITMAP
3C
66
C3
C3
C3
66
3C
18
18
7E
18
18
18
ENDCHAR
STARTCHAR uni000D
ENCODING 13
SWIDTH 54 0
DWIDTH 10 0
BBX 6 14 3 2
BITMAP
20
20
38
38
38
3C
24
24
24
20
60
E0
E0
C0
ENDCHAR
STARTCHAR uni000E
ENCODING 14
SWIDTH 54 0
DWIDTH 10 0
BBX 8 14 1 2
BITMAP
01
03
0F
39
33
27
2D
39
23
27
67
E6
E0
C0
ENDCHAR
STARTCHAR uni000F
ENCODING 15
SWIDTH 54 0
DWIDTH 10 0
BBX 7 9 2 3
BITMAP
10
92
7C
44
82
44
7C
92
10
ENDCHAR
STARTCHAR uni0010
ENCODING 16
SWIDTH 54 0
DWIDTH 10 0
BBX 10 22 0 -2
BITMAP
0400
0400
0400
0400
0400
0400
0400
0400
0400
0400
FFC0
0400
0400
0400
0400
0400
0400
0400
0400
0400
0400
0400
ENDCHAR
STARTCHAR uni0011
ENCODING 17
SWIDTH 54 0
DWIDTH 10 0
BBX 8 7 1 6
BITMAP
03
0F
3F
FF
3F
0F
03
ENDCHAR
STARTCHAR uni0012
ENCODING 18
SWIDTH 54 0
DWIDTH 10 0
BBX 6 14 2 2
BITMAP
30
78
FC
B4
30
30
30
30
30
30
B4
FC
78
30
ENDCHAR
STARTCHAR uni0013
ENCODING 19
SWIDTH 54 0
DWIDTH 10 0
BBX 6 14 2 2
BITMAP
CC
CC
CC
CC
CC
CC
CC
CC
CC
CC
00
00
CC
CC
ENDCHAR
STARTCHAR uni0014
ENCODING 20
SWIDTH 54 0
DWIDTH 10 0
BBX 8 14 1 2
BITMAP
7F
F3
F3
F3
F3
F3
F3
73
33
33
33
33
33
33
ENDCHAR
STARTCHAR uni0015
ENCODING 21
SWIDTH 54 0
DWIDTH 10 0
BBX 10 11 0 9
BITMAP
0400
0400
0400
0400
0400
0400
0400
0400
0400
0400
FFC0
ENDCHAR
STARTCHAR uni0016
ENCODING 22
SWIDTH 54 0
DWIDTH 10 0
BBX 10 12 0 -2
BITMAP
FFC0
0400
0400
0400
0400
0400
0400
0400
0400
0400
0400
0400
ENDCHAR
STARTCHAR uni0017
ENCODING 23
SWIDTH 54 0
DWIDTH 10 0
BBX 6 22 0 -2
BITMAP
04
04
04
04
04
04
04
04
04
04
FC
04
04
04
04
04
04
04
04
04
04
04
ENDCHAR
STARTCHAR uni0018
ENCODING 24
SWIDTH 54 0
DWIDTH 10 0
BBX 6 14 2 2
BITMAP
30
78
FC
FC
30
30
30
30
30
30
30
30
30
30
ENDCHAR
STARTCHAR uni0019
ENCODING 25
SWIDTH 54 0
DWIDTH 10 0
BBX 5 22 5 -2
BITMAP
80
80
80
80
80
80
80
80
80
80
F8
80
80
80
80
80
80
80
80
80
80
80
ENDCHAR
STARTCHAR uni001A
ENCODING 26
SWIDTH 54 0
DWIDTH 10 0
BBX 8 6 1 6
BITMAP
0C
0E
FF
FF
0E
0C
ENDCHAR
STARTCHAR uni001B
ENCODING 27
SWIDTH 54 0
DWIDTH 10 0
BBX 8 6 1 5
BITMAP
30
70
FF
FF
70
30
ENDCHAR
STARTCHAR uni001C
ENCODING 28
SWIDTH 54 0
DWIDTH 10 0
BBX 7 3 1 4
BITMAP
C0
C0
FE
ENDCHAR
STARTCHAR uni001D
ENCODING 29
SWIDTH 54 0
DWIDTH 10 0
BBX 8 6 1 5
BITMAP
24
66
FF
FF
66
24
ENDCHAR
STARTCHAR uni001E
ENCODING 30
SWIDTH 54 0
DWIDTH 10 0
BBX 8 8 1 6
BITMAP
18
18
3C
3C
7E
7E
FF
FF
ENDCHAR
STARTCHAR uni001F
ENCODING 31
SWIDTH 54 0
DWIDTH 10 0
BBX 8 8 1 6
BITMAP
FF
FF
7E
7E
3C
3C
18
18
ENDCHAR
STARTCHAR space
ENCODING 32
SWIDTH 54 0
DWIDTH 10 0
BBX 1 1 9 -2
BITMAP
00
ENDCHAR
STARTCHAR exclam
ENCODING 33
SWIDTH 54 0
DWIDTH 10 0
BBX 2 15 5 3
BITMAP
80
80
80
80
80
80
80
80
80
80
00
00
00
C0
C0
ENDCHAR
STARTCHAR quotedbl
ENCODING 34
SWIDTH 54 0
DWIDTH 10 0
BBX 6 3 2 16
BITMAP
6C
48
90
ENDCHAR
STARTCHAR numbersign
ENCODING 35
SWIDTH 54 0
DWIDTH 10 0
BBX 8 16 1 2
BITMAP
24
24
24
24
FF
24
24
24
24
24
FF
24
24
24
24
24
ENDCHAR
STARTCHAR dollar
ENCODING 36
SWIDTH 54 0
DWIDTH 10 0
BBX 7 17 2 2
BITMAP
10
38
54
92
92
92
50
30
18
14
12
92
92
92
54
38
10
ENDCHAR
STARTCHAR percent
ENCODING 37
SWIDTH 54 0
DWIDTH 10 0
BBX 9 16 1 3
BITMAP
0080
6100
9100
9200
9200
9400
9400
6800
0800
1300
1480
2480
2480
4480
4480
8300
ENDCHAR
STARTCHAR ampersand
ENCODING 38
SWIDTH 54 0
DWIDTH 10 0
BBX 8 15 2 3
BITMAP
30
48
48
48
50
20
20
60
92
92
8A
8A
84
4A
31
ENDCHAR
STARTCHAR quotesingle
ENCODING 39
SWIDTH 54 0
DWIDTH 10 0
BBX 2 4 4 15
BITMAP
C0
C0
40
80
ENDCHAR
STARTCHAR parenleft
ENCODING 40
SWIDTH 54 0
DWIDTH 10 0
BBX 4 18 4 1
BITMAP
10
20
40
40
80
80
80
80
80
80
80
80
80
80
40
40
20
10
ENDCHAR
STARTCHAR parenright
ENCODING 41
SWIDTH 54 0
DWIDTH 10 0
BBX 4 18 3 1
BITMAP
80
40
20
20
10
10
10
10
10
10
10
10
10
10
20
20
40
80
ENDCHAR
STARTCHAR asterisk
ENCODING 42
SWIDTH 54 0
DWIDTH 10 0
BBX 7 11 2 5
BITMAP
10
92
D6
54
38
10
38
54
D6
92
10
ENDCHAR
STARTCHAR plus
ENCODING 43
SWIDTH 54 0
DWIDTH 10 0
BBX 7 9 2 6
BITMAP
10
10
10
10
FE
10
10
10
10
ENDCHAR
STARTCHAR comma
ENCODING 44
SWIDTH 54 0
DWIDTH 10 0
BBX 2 4 4 1
BITMAP
C0
C0
40
80
ENDCHAR
STARTCHAR hyphen
ENCODING 45
SWIDTH 54 0
DWIDTH 10 0
BBX 7 1 2 10
BITMAP
FE
ENDCHAR
STARTCHAR period
ENCODING 46
SWIDTH 54 0
DWIDTH 10 0
BBX 2 2 4 3
BITMAP
C0
C0
ENDCHAR
STARTCHAR slash
ENCODING 47
SWIDTH 54 0
DWIDTH 10 0
BBX 9 18 1 1
BITMAP
0080
0080
0100
0100
0200
0200
0400
0400
0800
0800
1000
1000
2000
2000
4000
4000
8000
8000
ENDCHAR
STARTCHAR zero
ENCODING 48
SWIDTH 54 0
DWIDTH 10 0
BBX 8 15 1 3
BITMAP
3C
42
81
81
81
81
81
81
81
81
81
81
81
42
3C
ENDCHAR
STARTCHAR one
ENCODING 49
SWIDTH 54 0
DWIDTH 10 0
BBX 3 15 3 3
BITMAP
20
E0
20
20
20
20
20
20
20
20
20
20
20
20
20
ENDCHAR
STARTCHAR two
ENCODING 50
SWIDTH 54 0
DWIDTH 10 0
BBX 8 15 1 3
BITMAP
3C
42
81
81
81
02
02
04
08
08
10
20
20
40
FF
ENDCHAR
STARTCHAR three
ENCODING 51
SWIDTH 54 0
DWIDTH 10 0
BBX 8 15 1 3
BITMAP
3C
42
81
81
01
01
02
1C
02
01
81
81
81
42
3C
ENDCHAR
STARTCHAR four
ENCODING 52
SWIDTH 54 0
DWIDTH 10 0
BBX 8 15 1 3
BITMAP
04
04
0C
0C
14
14
24
24
44
44
FF
04
04
04
04
ENDCHAR
STARTCHAR five
ENCODING 53
SWIDTH 54 0
DWIDTH 10 0
BBX 8 15 1 3
BITMAP
FE
80
80
80
80
BC
C2
81
01
01
81
81
81
42
3C
ENDCHAR
STARTCHAR six
ENCODING 54
SWIDTH 54 0
DWIDTH 10 0
BBX 8 15 1 3
BITMAP
3C
42
81
81
80
BC
C2
81
81
81
81
81
81
42
3C
ENDCHAR
STARTCHAR seven
ENCODING 55
SWIDTH 54 0
DWIDTH 10 0
BBX 8 15 1 3
BITMAP
FF
01
01
02
02
04
04
04
08
08
10
10
10
20
20
ENDCHAR
STARTCHAR eight
ENCODING 56
SWIDTH 54 0
DWIDTH 10 0
BBX 8 15 1 3
BITMAP
3C
42
81
81
81
81
42
3C
42
81
81
81
81
42
3C
ENDCHAR
STARTCHAR nine
ENCODING 57
SWIDTH 54 0
DWIDTH 10 0
BBX 8 15 1 3
BITMAP
3C
42
81
81
81
81
81
81
43
3D
01
81
81
42
3C
ENDCHAR
STARTCHAR colon
ENCODING 58
SWIDTH 54 0
DWIDTH 10 0
BBX 2 10 4 3
BITMAP
C0
C0
00
00
00
00
00
00
C0
C0
ENDCHAR
STARTCHAR semicolon
ENCODING 59
SWIDTH 54 0
DWIDTH 10 0
BBX 2 12 4 1
BITMAP
C0
C0
00
00
00
00
00
00
C0
C0
40
80
ENDCHAR
STARTCHAR less
ENCODING 60
SWIDTH 54 0
DWIDTH 10 0
BBX 7 13 2 4
BITMAP
02
04
08
10
20
40
80
40
20
10
08
04
02
ENDCHAR
STARTCHAR equal
ENCODING 61
SWIDTH 54 0
DWIDTH 10 0
BBX 7 5 2 8
BITMAP
FE
00
00
00
FE
ENDCHAR
STARTCHAR greater
ENCODING 62
SWIDTH 54 0
DWIDTH 10 0
BBX 7 13 2 4
BITMAP
80
40
20
10
08
04
02
04
08
10
20
40
80
ENDCHAR
STARTCHAR question
ENCODING 63
SWIDTH 54 0
DWIDTH 10 0
BBX 8 15 1 3
BITMAP
3C
42
81
81
81
02
04
04
08
10
10
00
00
18
18
ENDCHAR
STARTCHAR at
ENCODING 64
SWIDTH 54 0
DWIDTH 10 0
BBX 9 16 1 2
BITMAP
1C00
2300
4100
4080
8E80
9280
A280
A280
A280
A280
A680
9B00
4000
4080
2100
1E00
ENDCHAR
STARTCHAR A
ENCODING 65
SWIDTH 54 0
DWIDTH 10 0
BBX 9 15 1 3
BITMAP
0800
0800
0800
1400
1400
1400
2200
2200
2200
4100
4100
7F00
8080
8080
8080
ENDCHAR
STARTCHAR B
ENCODING 66
SWIDTH 54 0
DWIDTH 10 0
BBX 8 15 1 3
BITMAP
FC
82
81
81
81
81
82
FC
82
81
81
81
81
82
FC
ENDCHAR
STARTCHAR C
ENCODING 67
SWIDTH 54 0
DWIDTH 10 0
BBX 8 15 1 3
BITMAP
3C
42
81
81
81
80
80
80
80
80
81
81
81
42
3C
ENDCHAR
STARTCHAR D
ENCODING 68
SWIDTH 54 0
DWIDTH 10 0
BBX 8 15 1 3
BITMAP
FC
82
81
81
81
81
81
81
81
81
81
81
81
82
FC
ENDCHAR
STARTCHAR E
ENCODING 69
SWIDTH 54 0
DWIDTH 10 0
BBX 8 15 1 3
BITMAP
FF
80
80
80
80
80
80
FE
80
80
80
80
80
80
FF
ENDCHAR
STARTCHAR F
ENCODING 70
SWIDTH 54 0
DWIDTH 10 0
BBX 8 15 1 3
BITMAP
FF
80
80
80
80
80
80
FE
80
80
80
80
80
80
80
ENDCHAR
STARTCHAR G
ENCODING 71
SWIDTH 54 0
DWIDTH 10 0
BBX 8 15 1 3
BITMAP
3C
42
81
81
81
80
80
80
87
81
81
81
81
43
3D
ENDCHAR
STARTCHAR H
ENCODING 72
SWIDTH 54 0
DWIDTH 10 0
BBX 8 15 1 3
BITMAP
81
81
81
81
81
81
81
FF
81
81
81
81
81
81
81
ENDCHAR
STARTCHAR I
ENCODING 73
SWIDTH 54 0
DWIDTH 10 0
BBX 3 15 4 3
BITMAP
E0
40
40
40
40
40
40
40
40
40
40
40
40
40
E0
ENDCHAR
STARTCHAR J
ENCODING 74
SWIDTH 54 0
DWIDTH 10 0
BBX 7 15 1 3
BITMAP
02
02
02
02
02
02
02
02
02
02
82
82
82
44
38
ENDCHAR
STARTCHAR K
ENCODING 75
SWIDTH 54 0
DWIDTH 10 0
BBX 8 15 1 3
BITMAP
82
82
84
84
88
88
90
90
A8
C8
84
82
82
81
81
ENDCHAR
STARTCHAR L
ENCODING 76
SWIDTH 54 0
DWIDTH 10 0
BBX 8 15 1 3
BITMAP
80
80
80
80
80
80
80
80
80
80
80
80
80
80
FF
ENDCHAR
STARTCHAR M
ENCODING 77
SWIDTH 54 0
DWIDTH 10 0
BBX 9 15 1 3
BITMAP
8080
8080
C180
C180
C180
C180
A280
A280
A280
9480
9480
9480
8880
8880
8880
ENDCHAR
STARTCHAR N
ENCODING 78
SWIDTH 54 0
DWIDTH 10 0
BBX 8 15 1 3
BITMAP
81
C1
C1
A1
A1
91
91
89
89
85
85
83
83
81
81
ENDCHAR
STARTCHAR O
ENCODING 79
SWIDTH 54 0
DWIDTH 10 0
BBX 9 15 1 3
BITMAP
3E00
4100
8080
8080
8080
8080
8080
8080
8080
8080
8080
8080
8080
4100
3E00
ENDCHAR
STARTCHAR P
ENCODING 80
SWIDTH 54 0
DWIDTH 10 0
BBX 8 15 1 3
BITMAP
FC
82
81
81
81
81
81
82
FC
80
80
80
80
80
80
ENDCHAR
STARTCHAR Q
ENCODING 81
SWIDTH 54 0
DWIDTH 10 0
BBX 9 15 1 3
BITMAP
3E00
4100
8080
8080
8080
8080
8080
8080
8080
8080
8080
8480
8280
4100
3E80
ENDCHAR
STARTCHAR R
ENCODING 82
SWIDTH 54 0
DWIDTH 10 0
BBX 8 15 1 3
BITMAP
FC
82
81
81
81
81
82
FC
84
84
82
82
82
81
81
ENDCHAR
STARTCHAR S
ENCODING 83
SWIDTH 54 0
DWIDTH 10 0
BBX 8 15 1 3
BITMAP
3C
42
81
81
81
40
30
0C
02
01
81
81
81
42
3C
ENDCHAR
STARTCHAR T
ENCODING 84
SWIDTH 54 0
DWIDTH 10 0
BBX 9 15 1 3
BITMAP
FF80
0800
0800
0800
0800
0800
0800
0800
0800
0800
0800
0800
0800
0800
0800
ENDCHAR
STARTCHAR U
ENCODING 85
SWIDTH 54 0
DWIDTH 10 0
BBX 8 15 1 3
BITMAP
81
81
81
81
81
81
81
81
81
81
81
81
81
42
3C
ENDCHAR
STARTCHAR V
ENCODING 86
SWIDTH 54 0
DWIDTH 10 0
BBX 9 15 1 3
BITMAP
8080
8080
8080
4100
4100
4100
2200
2200
2200
1400
1400
1400
0800
0800
0800
ENDCHAR
STARTCHAR W
ENCODING 87
SWIDTH 54 0
DWIDTH 10 0
BBX 9 15 1 3
BITMAP
8880
8880
8880
8880
8880
5500
5500
5500
5500
5500
2200
2200
2200
2200
2200
ENDCHAR
STARTCHAR X
ENCODING 88
SWIDTH 54 0
DWIDTH 10 0
BBX 9 15 1 3
BITMAP
8080
4100
4100
2200
2200
1400
1400
0800
1400
1400
2200
2200
4100
4100
8080
ENDCHAR
STARTCHAR Y
ENCODING 89
SWIDTH 54 0
DWIDTH 10 0
BBX 9 15 1 3
BITMAP
8080
8080
4100
4100
2200
2200
1400
1400
0800
0800
0800
0800
0800
0800
0800
ENDCHAR
STARTCHAR Z
ENCODING 90
SWIDTH 54 0
DWIDTH 10 0
BBX 8 15 1 3
BITMAP
7F
01
02
02
04
04
08
10
10
20
20
40
40
80
FF
ENDCHAR
STARTCHAR bracketleft
ENCODING 91
SWIDTH 54 0
DWIDTH 10 0
BBX 5 18 3 1
BITMAP
F8
80
80
80
80
80
80
80
80
80
80
80
80
80
80
80
80
F8
ENDCHAR
STARTCHAR backslash
ENCODING 92
SWIDTH 54 0
DWIDTH 10 0
BBX 10 15 0 3
BITMAP
4440
4440
4440
4440
FFC0
2A80
2A80
2A80
2A80
2A80
1100
1100
1100
1100
1100
ENDCHAR
STARTCHAR bracketright
ENCODING 93
SWIDTH 54 0
DWIDTH 10 0
BBX 5 18 3 1
BITMAP
F8
08
08
08
08
08
08
08
08
08
08
08
08
08
08
08
08
F8
ENDCHAR
STARTCHAR asciicircum
ENCODING 94
SWIDTH 54 0
DWIDTH 10 0
BBX 5 3 3 16
BITMAP
20
50
88
ENDCHAR
STARTCHAR underscore
ENCODING 95
SWIDTH 54 0
DWIDTH 10 0
BBX 10 1 0 0
BITMAP
FFC0
ENDCHAR
STARTCHAR grave
ENCODING 96
SWIDTH 54 0
DWIDTH 10 0
BBX 3 3 4 16
BITMAP
80
40
20
ENDCHAR
STARTCHAR a
ENCODING 97
SWIDTH 54 0
DWIDTH 10 0
BBX 8 10 1 3
BITMAP
3C
42
82
02
3E
42
82
82
86
7B
ENDCHAR
STARTCHAR b
ENCODING 98
SWIDTH 54 0
DWIDTH 10 0
BBX 8 15 1 3
BITMAP
80
80
80
80
80
BC
C2
81
81
81
81
81
81
C2
BC
ENDCHAR
STARTCHAR c
ENCODING 99
SWIDTH 54 0
DWIDTH 10 0
BBX 8 10 1 3
BITMAP
3C
42
81
80
80
80
80
81
42
3C
ENDCHAR
STARTCHAR d
ENCODING 100
SWIDTH 54 0
DWIDTH 10 0
BBX 8 15 1 3
BITMAP
01
01
01
01
01
3D
43
81
81
81
81
81
81
43
3D
ENDCHAR
STARTCHAR e
ENCODING 101
SWIDTH 54 0
DWIDTH 10 0
BBX 8 10 1 3
BITMAP
3C
42
81
81
FF
80
80
81
42
3C
ENDCHAR
STARTCHAR f
ENCODING 102
SWIDTH 54 0
DWIDTH 10 0
BBX 6 15 2 3
BITMAP
1C
20
20
20
20
FC
20
20
20
20
20
20
20
20
20
ENDCHAR
STARTCHAR g
ENCODING 103
SWIDTH 54 0
DWIDTH 10 0
BBX 9 12 1 1
BITMAP
3D80
4200
4200
4200
3C00
4000
4000
7E00
8100
8100
8100
7E00
ENDCHAR
STARTCHAR h
ENCODING 104
SWIDTH 54 0
DWIDTH 10 0
BBX 8 15 1 3
BITMAP
80
80
80
80
80
BC
C2
81
81
81
81
81
81
81
81
ENDCHAR
STARTCHAR i
ENCODING 105
SWIDTH 54 0
DWIDTH 10 0
BBX 1 15 5 3
BITMAP
80
80
00
00
00
80
80
80
80
80
80
80
80
80
80
ENDCHAR
STARTCHAR j
ENCODING 106
SWIDTH 54 0
DWIDTH 10 0
BBX 4 17 2 1
BITMAP
10
10
00
00
00
10
10
10
10
10
10
10
10
10
10
10
E0
ENDCHAR
STARTCHAR k
ENCODING 107
SWIDTH 54 0
DWIDTH 10 0
BBX 8 15 1 3
BITMAP
80
80
80
80
80
82
84
88
90
A0
D0
88
84
82
81
ENDCHAR
STARTCHAR l
ENCODING 108
SWIDTH 54 0
DWIDTH 10 0
BBX 1 15 5 3
BITMAP
80
80
80
80
80
80
80
80
80
80
80
80
80
80
80
ENDCHAR
STARTCHAR m
ENCODING 109
SWIDTH 54 0
DWIDTH 10 0
BBX 9 10 1 3
BITMAP
B300
CC80
8880
8880
8880
8880
8880
8880
8880
8880
ENDCHAR
STARTCHAR n
ENCODING 110
SWIDTH 54 0
DWIDTH 10 0
BBX 8 10 1 3
BITMAP
BC
C2
81
81
81
81
81
81
81
81
ENDCHAR
STARTCHAR o
ENCODING 111
SWIDTH 54 0
DWIDTH 10 0
BBX 8 10 1 3
BITMAP
3C
42
81
81
81
81
81
81
42
3C
ENDCHAR
STARTCHAR p
ENCODING 112
SWIDTH 54 0
DWIDTH 10 0
BBX 8 12 1 1
BITMAP
BC
C2
81
81
81
81
81
C2
BC
80
80
80
ENDCHAR
STARTCHAR q
ENCODING 113
SWIDTH 54 0
DWIDTH 10 0
BBX 8 12 1 1
BITMAP
3D
43
81
81
81
81
81
43
3D
01
01
01
ENDCHAR
STARTCHAR r
ENCODING 114
SWIDTH 54 0
DWIDTH 10 0
BBX 5 10 3 3
BITMAP
B8
C0
80
80
80
80
80
80
80
80
ENDCHAR
STARTCHAR s
ENCODING 115
SWIDTH 54 0
DWIDTH 10 0
BBX 8 10 1 3
BITMAP
7E
81
81
80
70
0E
01
81
81
7E
ENDCHAR
STARTCHAR t
ENCODING 116
SWIDTH 54 0
DWIDTH 10 0
BBX 6 14 2 3
BITMAP
20
20
20
20
FC
20
20
20
20
20
20
20
20
1C
ENDCHAR
STARTCHAR u
ENCODING 117
SWIDTH 54 0
DWIDTH 10 0
BBX 8 10 1 3
BITMAP
81
81
81
81
81
81
81
81
43
3D
ENDCHAR
STARTCHAR v
ENCODING 118
SWIDTH 54 0
DWIDTH 10 0
BBX 9 10 1 3
BITMAP
8080
8080
4100
4100
2200
2200
1400
1400
0800
0800
ENDCHAR
STARTCHAR w
ENCODING 119
SWIDTH 54 0
DWIDTH 10 0
BBX 9 10 1 3
BITMAP
8880
8880
8880
5500
5500
5500
5500
2200
2200
2200
ENDCHAR
STARTCHAR x
ENCODING 120
SWIDTH 54 0
DWIDTH 10 0
BBX 9 10 1 3
BITMAP
8080
4100
2200
1400
0800
0800
1400
2200
4100
8080
ENDCHAR
STARTCHAR y
ENCODING 121
SWIDTH 54 0
DWIDTH 10 0
BBX 9 13 1 0
BITMAP
8080
8080
4100
4100
2200
2200
1400
1400
0800
1000
1000
2000
4000
ENDCHAR
STARTCHAR z
ENCODING 122
SWIDTH 54 0
DWIDTH 10 0
BBX 8 10 1 3
BITMAP
FF
01
02
04
08
10
20
40
80
FF
ENDCHAR
STARTCHAR braceleft
ENCODING 123
SWIDTH 54 0
DWIDTH 10 0
BBX 5 18 3 1
BITMAP
38
20
20
20
20
20
20
20
C0
C0
20
20
20
20
20
20
20
38
ENDCHAR
STARTCHAR bar
ENCODING 124
SWIDTH 54 0
DWIDTH 10 0
BBX 1 20 5 0
BITMAP
80
80
80
80
80
80
80
80
80
80
80
80
80
80
80
80
80
80
80
80
ENDCHAR
STARTCHAR braceright
ENCODING 125
SWIDTH 54 0
DWIDTH 10 0
BBX 5 18 3 1
BITMAP
E0
20
20
20
20
20
20
20
18
18
20
20
20
20
20
20
20
E0
ENDCHAR
STARTCHAR asciitilde
ENCODING 126
SWIDTH 54 0
DWIDTH 10 0
BBX 9 3 1 16
BITMAP
3080
4900
8600
ENDCHAR
STARTCHAR uni007F
ENCODING 127
SWIDTH 54 0
DWIDTH 10 0
BBX 8 14 1 2
BITMAP
18
18
3C
66
66
C3
C3
C3
C3
C3
C3
C3
FF
FF
ENDCHAR
STARTCHAR Euro
ENCODING 128
SWIDTH 54 0
DWIDTH 10 0
BBX 1 1 9 -2
BITMAP
00
ENDCHAR
STARTCHAR NameMe.129
ENCODING 129
SWIDTH 54 0
DWIDTH 10 0
BBX 1 1 9 -2
BITMAP
00
ENDCHAR
STARTCHAR quotesinglbase
ENCODING 130
SWIDTH 54 0
DWIDTH 10 0
BBX 1 1 9 -2
BITMAP
00
ENDCHAR
STARTCHAR florin
ENCODING 131
SWIDTH 54 0
DWIDTH 10 0
BBX 1 1 9 -2
BITMAP
00
ENDCHAR
STARTCHAR quotedblbase
ENCODING 132
SWIDTH 54 0
DWIDTH 10 0
BBX 1 1 9 -2
BITMAP
00
ENDCHAR
STARTCHAR ellipsis
ENCODING 133
SWIDTH 54 0
DWIDTH 10 0
BBX 1 1 9 -2
BITMAP
00
ENDCHAR
STARTCHAR dagger
ENCODING 134
SWIDTH 54 0
DWIDTH 10 0
BBX 1 1 9 -2
BITMAP
00
ENDCHAR
STARTCHAR daggerdbl
ENCODING 135
SWIDTH 54 0
DWIDTH 10 0
BBX 1 1 9 -2
BITMAP
00
ENDCHAR
STARTCHAR circumflex
ENCODING 136
SWIDTH 54 0
DWIDTH 10 0
BBX 1 1 9 -2
BITMAP
00
ENDCHAR
STARTCHAR perthousand
ENCODING 137
SWIDTH 54 0
DWIDTH 10 0
BBX 1 1 9 -2
BITMAP
00
ENDCHAR
STARTCHAR Scaron
ENCODING 138
SWIDTH 54 0
DWIDTH 10 0
BBX 1 1 9 -2
BITMAP
00
ENDCHAR
STARTCHAR guilsinglleft
ENCODING 139
SWIDTH 54 0
DWIDTH 10 0
BBX 1 1 9 -2
BITMAP
00
ENDCHAR
STARTCHAR OE
ENCODING 140
SWIDTH 54 0
DWIDTH 10 0
BBX 1 1 9 -2
BITMAP
00
ENDCHAR
STARTCHAR NameMe.141
ENCODING 141
SWIDTH 54 0
DWIDTH 10 0
BBX 1 1 9 -2
BITMAP
00
ENDCHAR
STARTCHAR Zcaron
ENCODING 142
SWIDTH 54 0
DWIDTH 10 0
BBX 1 1 9 -2
BITMAP
00
ENDCHAR
STARTCHAR NameMe.143
ENCODING 143
SWIDTH 54 0
DWIDTH 10 0
BBX 1 1 9 -2
BITMAP
00
ENDCHAR
STARTCHAR NameMe.144
ENCODING 144
SWIDTH 54 0
DWIDTH 10 0
BBX 1 1 9 -2
BITMAP
00
ENDCHAR
STARTCHAR quoteleft
ENCODING 145
SWIDTH 54 0
DWIDTH 10 0
BBX 1 1 9 -2
BITMAP
00
ENDCHAR
STARTCHAR quoteright
ENCODING 146
SWIDTH 54 0
DWIDTH 10 0
BBX 1 1 9 -2
BITMAP
00
ENDCHAR
STARTCHAR quotedblleft
ENCODING 147
SWIDTH 54 0
DWIDTH 10 0
BBX 1 1 9 -2
BITMAP
00
ENDCHAR
STARTCHAR quotedblright
ENCODING 148
SWIDTH 54 0
DWIDTH 10 0
BBX 1 1 9 -2
BITMAP
00
ENDCHAR
STARTCHAR bullet
ENCODING 149
SWIDTH 54 0
DWIDTH 10 0
BBX 1 1 9 -2
BITMAP
00
ENDCHAR
STARTCHAR endash
ENCODING 150
SWIDTH 54 0
DWIDTH 10 0
BBX 1 1 9 -2
BITMAP
00
ENDCHAR
STARTCHAR emdash
ENCODING 151
SWIDTH 54 0
DWIDTH 10 0
BBX 1 1 9 -2
BITMAP
00
ENDCHAR
STARTCHAR tilde
ENCODING 152
SWIDTH 54 0
DWIDTH 10 0
BBX 1 1 9 -2
BITMAP
00
ENDCHAR
STARTCHAR trademark
ENCODING 153
SWIDTH 54 0
DWIDTH 10 0
BBX 1 1 9 -2
BITMAP
00
ENDCHAR
STARTCHAR scaron
ENCODING 154
SWIDTH 54 0
DWIDTH 10 0
BBX 1 1 9 -2
BITMAP
00
ENDCHAR
STARTCHAR guilsinglright
ENCODING 155
SWIDTH 54 0
DWIDTH 10 0
BBX 1 1 9 -2
BITMAP
00
ENDCHAR
STARTCHAR oe
ENCODING 156
SWIDTH 54 0
DWIDTH 10 0
BBX 1 1 9 -2
BITMAP
00
ENDCHAR
STARTCHAR NameMe.157
ENCODING 157
SWIDTH 54 0
DWIDTH 10 0
BBX 1 1 9 -2
BITMAP
00
ENDCHAR
STARTCHAR zcaron
ENCODING 158
SWIDTH 54 0
DWIDTH 10 0
BBX 1 1 9 -2
BITMAP
00
ENDCHAR
STARTCHAR Ydieresis
ENCODING 159
SWIDTH 54 0
DWIDTH 10 0
BBX 1 1 9 -2
BITMAP
00
ENDCHAR
STARTCHAR uni00A0
ENCODING 160
SWIDTH 54 0
DWIDTH 10 0
BBX 1 1 9 -2
BITMAP
00
ENDCHAR
STARTCHAR exclamdown
ENCODING 161
SWIDTH 54 0
DWIDTH 10 0
BBX 1 1 9 -2
BITMAP
00
ENDCHAR
STARTCHAR cent
ENCODING 162
SWIDTH 54 0
DWIDTH 10 0
BBX 1 1 9 -2
BITMAP
00
ENDCHAR
STARTCHAR sterling
ENCODING 163
SWIDTH 54 0
DWIDTH 10 0
BBX 1 1 9 -2
BITMAP
00
ENDCHAR
STARTCHAR currency
ENCODING 164
SWIDTH 54 0
DWIDTH 10 0
BBX 1 1 9 -2
BITMAP
00
ENDCHAR
STARTCHAR yen
ENCODING 165
SWIDTH 54 0
DWIDTH 10 0
BBX 1 1 9 -2
BITMAP
00
ENDCHAR
STARTCHAR brokenbar
ENCODING 166
SWIDTH 54 0
DWIDTH 10 0
BBX 1 1 9 -2
BITMAP
00
ENDCHAR
STARTCHAR section
ENCODING 167
SWIDTH 54 0
DWIDTH 10 0
BBX 1 1 9 -2
BITMAP
00
ENDCHAR
STARTCHAR dieresis
ENCODING 168
SWIDTH 54 0
DWIDTH 10 0
BBX 1 1 9 -2
BITMAP
00
ENDCHAR
STARTCHAR copyright
ENCODING 169
SWIDTH 54 0
DWIDTH 10 0
BBX 1 1 9 -2
BITMAP
00
ENDCHAR
STARTCHAR ordfeminine
ENCODING 170
SWIDTH 54 0
DWIDTH 10 0
BBX 1 1 9 -2
BITMAP
00
ENDCHAR
STARTCHAR guillemotleft
ENCODING 171
SWIDTH 54 0
DWIDTH 10 0
BBX 1 1 9 -2
BITMAP
00
ENDCHAR
STARTCHAR logicalnot
ENCODING 172
SWIDTH 54 0
DWIDTH 10 0
BBX 1 1 9 -2
BITMAP
00
ENDCHAR
STARTCHAR uni00AD
ENCODING 173
SWIDTH 54 0
DWIDTH 10 0
BBX 1 1 9 -2
BITMAP
00
ENDCHAR
STARTCHAR registered
ENCODING 174
SWIDTH 54 0
DWIDTH 10 0
BBX 1 1 9 -2
BITMAP
00
ENDCHAR
STARTCHAR macron
ENCODING 175
SWIDTH 54 0
DWIDTH 10 0
BBX 1 1 9 -2
BITMAP
00
ENDCHAR
STARTCHAR degree
ENCODING 176
SWIDTH 54 0
DWIDTH 10 0
BBX 1 1 9 -2
BITMAP
00
ENDCHAR
STARTCHAR plusminus
ENCODING 177
SWIDTH 54 0
DWIDTH 10 0
BBX 1 1 9 -2
BITMAP
00
ENDCHAR
STARTCHAR uni00B2
ENCODING 178
SWIDTH 54 0
DWIDTH 10 0
BBX 1 1 9 -2
BITMAP
00
ENDCHAR
STARTCHAR uni00B3
ENCODING 179
SWIDTH 54 0
DWIDTH 10 0
BBX 1 1 9 -2
BITMAP
00
ENDCHAR
STARTCHAR acute
ENCODING 180
SWIDTH 54 0
DWIDTH 10 0
BBX 1 1 9 -2
BITMAP
00
ENDCHAR
STARTCHAR uni00B5
ENCODING 181
SWIDTH 54 0
DWIDTH 10 0
BBX 1 1 9 -2
BITMAP
00
ENDCHAR
STARTCHAR paragraph
ENCODING 182
SWIDTH 54 0
DWIDTH 10 0
BBX 1 1 9 -2
BITMAP
00
ENDCHAR
STARTCHAR periodcentered
ENCODING 183
SWIDTH 54 0
DWIDTH 10 0
BBX 1 1 9 -2
BITMAP
00
ENDCHAR
STARTCHAR cedilla
ENCODING 184
SWIDTH 54 0
DWIDTH 10 0
BBX 1 1 9 -2
BITMAP
00
ENDCHAR
STARTCHAR uni00B9
ENCODING 185
SWIDTH 54 0
DWIDTH 10 0
BBX 1 1 9 -2
BITMAP
00
ENDCHAR
STARTCHAR ordmasculine
ENCODING 186
SWIDTH 54 0
DWIDTH 10 0
BBX 1 1 9 -2
BITMAP
00
ENDCHAR
STARTCHAR guillemotright
ENCODING 187
SWIDTH 54 0
DWIDTH 10 0
BBX 1 1 9 -2
BITMAP
00
ENDCHAR
STARTCHAR onequarter
ENCODING 188
SWIDTH 54 0
DWIDTH 10 0
BBX 1 1 9 -2
BITMAP
00
ENDCHAR
STARTCHAR onehalf
ENCODING 189
SWIDTH 54 0
DWIDTH 10 0
BBX 1 1 9 -2
BITMAP
00
ENDCHAR
STARTCHAR threequarters
ENCODING 190
SWIDTH 54 0
DWIDTH 10 0
BBX 1 1 9 -2
BITMAP
00
ENDCHAR
STARTCHAR questiondown
ENCODING 191
SWIDTH 54 0
DWIDTH 10 0
BBX 1 1 9 -2
BITMAP
00
ENDCHAR
STARTCHAR Agrave
ENCODING 192
SWIDTH 54 0
DWIDTH 10 0
BBX 1 1 9 -2
BITMAP
00
ENDCHAR
STARTCHAR Aacute
ENCODING 193
SWIDTH 54 0
DWIDTH 10 0
BBX 1 1 9 -2
BITMAP
00
ENDCHAR
STARTCHAR Acircumflex
ENCODING 194
SWIDTH 54 0
DWIDTH 10 0
BBX 1 1 9 -2
BITMAP
00
ENDCHAR
STARTCHAR Atilde
ENCODING 195
SWIDTH 54 0
DWIDTH 10 0
BBX 1 1 9 -2
BITMAP
00
ENDCHAR
STARTCHAR Adieresis
ENCODING 196
SWIDTH 54 0
DWIDTH 10 0
BBX 1 1 9 -2
BITMAP
00
ENDCHAR
STARTCHAR Aring
ENCODING 197
SWIDTH 54 0
DWIDTH 10 0
BBX 1 1 9 -2
BITMAP
00
ENDCHAR
STARTCHAR AE
ENCODING 198
SWIDTH 54 0
DWIDTH 10 0
BBX 1 1 9 -2
BITMAP
00
ENDCHAR
STARTCHAR Ccedilla
ENCODING 199
SWIDTH 54 0
DWIDTH 10 0
BBX 1 1 9 -2
BITMAP
00
ENDCHAR
STARTCHAR Egrave
ENCODING 200
SWIDTH 54 0
DWIDTH 10 0
BBX 1 1 9 -2
BITMAP
00
ENDCHAR
STARTCHAR Eacute
ENCODING 201
SWIDTH 54 0
DWIDTH 10 0
BBX 1 1 9 -2
BITMAP
00
ENDCHAR
STARTCHAR Ecircumflex
ENCODING 202
SWIDTH 54 0
DWIDTH 10 0
BBX 1 1 9 -2
BITMAP
00
ENDCHAR
STARTCHAR Edieresis
ENCODING 203
SWIDTH 54 0
DWIDTH 10 0
BBX 1 1 9 -2
BITMAP
00
ENDCHAR
STARTCHAR Igrave
ENCODING 204
SWIDTH 54 0
DWIDTH 10 0
BBX 1 1 9 -2
BITMAP
00
ENDCHAR
STARTCHAR Iacute
ENCODING 205
SWIDTH 54 0
DWIDTH 10 0
BBX 1 1 9 -2
BITMAP
00
ENDCHAR
STARTCHAR Icircumflex
ENCODING 206
SWIDTH 54 0
DWIDTH 10 0
BBX 1 1 9 -2
BITMAP
00
ENDCHAR
STARTCHAR Idieresis
ENCODING 207
SWIDTH 54 0
DWIDTH 10 0
BBX 1 1 9 -2
BITMAP
00
ENDCHAR
STARTCHAR Eth
ENCODING 208
SWIDTH 54 0
DWIDTH 10 0
BBX 1 1 9 -2
BITMAP
00
ENDCHAR
STARTCHAR Ntilde
ENCODING 209
SWIDTH 54 0
DWIDTH 10 0
BBX 1 1 9 -2
BITMAP
00
ENDCHAR
STARTCHAR Ograve
ENCODING 210
SWIDTH 54 0
DWIDTH 10 0
BBX 1 1 9 -2
BITMAP
00
ENDCHAR
STARTCHAR Oacute
ENCODING 211
SWIDTH 54 0
DWIDTH 10 0
BBX 1 1 9 -2
BITMAP
00
ENDCHAR
STARTCHAR Ocircumflex
ENCODING 212
SWIDTH 54 0
DWIDTH 10 0
BBX 1 1 9 -2
BITMAP
00
ENDCHAR
STARTCHAR Otilde
ENCODING 213
SWIDTH 54 0
DWIDTH 10 0
BBX 1 1 9 -2
BITMAP
00
ENDCHAR
STARTCHAR Odieresis
ENCODING 214
SWIDTH 54 0
DWIDTH 10 0
BBX 1 1 9 -2
BITMAP
00
ENDCHAR
STARTCHAR multiply
ENCODING 215
SWIDTH 54 0
DWIDTH 10 0
BBX 1 1 9 -2
BITMAP
00
ENDCHAR
STARTCHAR Oslash
ENCODING 216
SWIDTH 54 0
DWIDTH 10 0
BBX 1 1 9 -2
BITMAP
00
ENDCHAR
STARTCHAR Ugrave
ENCODING 217
SWIDTH 54 0
DWIDTH 10 0
BBX 1 1 9 -2
BITMAP
00
ENDCHAR
STARTCHAR Uacute
ENCODING 218
SWIDTH 54 0
DWIDTH 10 0
BBX 1 1 9 -2
BITMAP
00
ENDCHAR
STARTCHAR Ucircumflex
ENCODING 219
SWIDTH 54 0
DWIDTH 10 0
BBX 1 1 9 -2
BITMAP
00
ENDCHAR
STARTCHAR Udieresis
ENCODING 220
SWIDTH 54 0
DWIDTH 10 0
BBX 1 1 9 -2
BITMAP
00
ENDCHAR
STARTCHAR Yacute
ENCODING 221
SWIDTH 54 0
DWIDTH 10 0
BBX 1 1 9 -2
BITMAP
00
ENDCHAR
STARTCHAR Thorn
ENCODING 222
SWIDTH 54 0
DWIDTH 10 0
BBX 1 1 9 -2
BITMAP
00
ENDCHAR
STARTCHAR germandbls
ENCODING 223
SWIDTH 54 0
DWIDTH 10 0
BBX 1 1 9 -2
BITMAP
00
ENDCHAR
STARTCHAR agrave
ENCODING 224
SWIDTH 54 0
DWIDTH 10 0
BBX 1 1 9 -2
BITMAP
00
ENDCHAR
STARTCHAR aacute
ENCODING 225
SWIDTH 54 0
DWIDTH 10 0
BBX 1 1 9 -2
BITMAP
00
ENDCHAR
STARTCHAR acircumflex
ENCODING 226
SWIDTH 54 0
DWIDTH 10 0
BBX 1 1 9 -2
BITMAP
00
ENDCHAR
STARTCHAR atilde
ENCODING 227
SWIDTH 54 0
DWIDTH 10 0
BBX 1 1 9 -2
BITMAP
00
ENDCHAR
STARTCHAR adieresis
ENCODING 228
SWIDTH 54 0
DWIDTH 10 0
BBX 1 1 9 -2
BITMAP
00
ENDCHAR
STARTCHAR aring
ENCODING 229
SWIDTH 54 0
DWIDTH 10 0
BBX 1 1 9 -2
BITMAP
00
ENDCHAR
STARTCHAR ae
ENCODING 230
SWIDTH 54 0
DWIDTH 10 0
BBX 1 1 9 -2
BITMAP
00
ENDCHAR
STARTCHAR ccedilla
ENCODING 231
SWIDTH 54 0
DWIDTH 10 0
BBX 1 1 9 -2
BITMAP
00
ENDCHAR
STARTCHAR egrave
ENCODING 232
SWIDTH 54 0
DWIDTH 10 0
BBX 1 1 9 -2
BITMAP
00
ENDCHAR
STARTCHAR eacute
ENCODING 233
SWIDTH 54 0
DWIDTH 10 0
BBX 1 1 9 -2
BITMAP
00
ENDCHAR
STARTCHAR ecircumflex
ENCODING 234
SWIDTH 54 0
DWIDTH 10 0
BBX 1 1 9 -2
BITMAP
00
ENDCHAR
STARTCHAR edieresis
ENCODING 235
SWIDTH 54 0
DWIDTH 10 0
BBX 1 1 9 -2
BITMAP
00
ENDCHAR
STARTCHAR igrave
ENCODING 236
SWIDTH 54 0
DWIDTH 10 0
BBX 1 1 9 -2
BITMAP
00
ENDCHAR
STARTCHAR iacute
ENCODING 237
SWIDTH 54 0
DWIDTH 10 0
BBX 1 1 9 -2
BITMAP
00
ENDCHAR
STARTCHAR icircumflex
ENCODING 238
SWIDTH 54 0
DWIDTH 10 0
BBX 1 1 9 -2
BITMAP
00
ENDCHAR
STARTCHAR idieresis
ENCODING 239
SWIDTH 54 0
DWIDTH 10 0
BBX 1 1 9 -2
BITMAP
00
ENDCHAR
STARTCHAR eth
ENCODING 240
SWIDTH 54 0
DWIDTH 10 0
BBX 1 1 9 -2
BITMAP
00
ENDCHAR
STARTCHAR ntilde
ENCODING 241
SWIDTH 54 0
DWIDTH 10 0
BBX 1 1 9 -2
BITMAP
00
ENDCHAR
STARTCHAR ograve
ENCODING 242
SWIDTH 54 0
DWIDTH 10 0
BBX 1 1 9 -2
BITMAP
00
ENDCHAR
STARTCHAR oacute
ENCODING 243
SWIDTH 54 0
DWIDTH 10 0
BBX 1 1 9 -2
BITMAP
00
ENDCHAR
STARTCHAR ocircumflex
ENCODING 244
SWIDTH 54 0
DWIDTH 10 0
BBX 1 1 9 -2
BITMAP
00
ENDCHAR
STARTCHAR otilde
ENCODING 245
SWIDTH 54 0
DWIDTH 10 0
BBX 1 1 9 -2
BITMAP
00
ENDCHAR
STARTCHAR odieresis
ENCODING 246
SWIDTH 54 0
DWIDTH 10 0
BBX 1 1 9 -2
BITMAP
00
ENDCHAR
STARTCHAR divide
ENCODING 247
SWIDTH 54 0
DWIDTH 10 0
BBX 1 1 9 -2
BITMAP
00
ENDCHAR
STARTCHAR oslash
ENCODING 248
SWIDTH 54 0
DWIDTH 10 0
BBX 1 1 9 -2
BITMAP
00
ENDCHAR
STARTCHAR ugrave
ENCODING 249
SWIDTH 54 0
DWIDTH 10 0
BBX 1 1 9 -2
BITMAP
00
ENDCHAR
STARTCHAR uacute
ENCODING 250
SWIDTH 54 0
DWIDTH 10 0
BBX 1 1 9 -2
BITMAP
00
ENDCHAR
STARTCHAR ucircumflex
ENCODING 251
SWIDTH 54 0
DWIDTH 10 0
BBX 1 1 9 -2
BITMAP
00
ENDCHAR
STARTCHAR udieresis
ENCODING 252
SWIDTH 54 0
DWIDTH 10 0
BBX 1 1 9 -2
BITMAP
00
ENDCHAR
STARTCHAR yacute
ENCODING 253
SWIDTH 54 0
DWIDTH 10 0
BBX 1 1 9 -2
BITMAP
00
ENDCHAR
STARTCHAR thorn
ENCODING 254
SWIDTH 54 0
DWIDTH 10 0
BBX 1 1 9 -2
BITMAP
00
ENDCHAR
STARTCHAR ydieresis
ENCODING 255
SWIDTH 54 0
DWIDTH 10 0
BBX 1 1 9 -2
BITMAP
00
ENDCHAR
ENDFONT
